SplineFontDB: 3.2
FontName: AurebeshCode-Regular
FullName: Aurebesh Code Regular
FamilyName: Aurebesh Code
Weight: Regular
Copyright: Copyright (c) 2022, Aaron Ellington
UComments: "2022-11-12: Created with FontForge (http://fontforge.org)"
Version: 001.000
ItalicAngle: 0
UnderlinePosition: -100
UnderlineWidth: 50
Ascent: 416
Descent: 32
InvalidEm: 0
LayerCount: 2
Layer: 0 0 "Back" 1
Layer: 1 0 "Fore" 0
XUID: [1021 11 96979902 10047024]
OS2Version: 0
OS2_WeightWidthSlopeOnly: 0
OS2_UseTypoMetrics: 1
CreationTime: 1668311874
ModificationTime: 1668311874
OS2TypoAscent: 0
OS2TypoAOffset: 1
OS2TypoDescent: 0
OS2TypoDOffset: 1
OS2TypoLinegap: 0
OS2WinAscent: 0
OS2WinAOffset: 1
OS2WinDescent: 0
OS2WinDOffset: 1
HheadAscent: 0
HheadAOffset: 1
HheadDescent: 0
HheadDOffset: 1
OS2Vendor: 'PfEd'
DEI: 91125
LangName: 1033 "" "" "" "AurebeshCode:Regular"
Encoding: ISO8859-1
UnicodeInterp: none
NameList: AGL For New Fonts
DisplaySize: -48
AntiAlias: 1
FitToEm: 0
OnlyBitmaps: 1
BeginChars: 256 95

StartChar: l
Encoding: 108 108 0
Width: 384
Flags: HW
LayerCount: 2
Fore
SplineSet
320.999023438 256 m 1
 321 0 l 1
 257 0 l 1
 63.0107421875 112 l 1
 95.0107421875 167.42578125 l 1
 256.999023438 73.9013671875 l 1
 256.999023438 256 l 1
 320.999023438 256 l 1
EndSplineSet
EndChar

StartChar: Q
Encoding: 81 81 1
Width: 384
Flags: HW
LayerCount: 2
Fore
SplineSet
352 384 m 1
 352 256 l 1
 288 256 l 1
 287.999023438 320 l 1
 96 320 l 1
 95.9990234375 64 l 1
 288 64 l 1
 223.999023438 0 l 1
 32 0 l 1
 32 384 l 1
 352 384 l 1
EndSplineSet
EndChar

StartChar: seven
Encoding: 55 55 2
Width: 384
Flags: HW
LayerCount: 2
Fore
SplineSet
352 0 m 1
 288 0 l 1
 288 320 l 1
 32 320 l 1
 32 384 l 1
 352 384 l 1
 352 0 l 1
EndSplineSet
EndChar

StartChar: semicolon
Encoding: 59 59 3
Width: 384
Flags: HW
LayerCount: 2
Fore
SplineSet
224 128 m 1
 224 64 l 1
 133.490234375 -26.509765625 l 1
 88.2353515625 18.7451171875 l 1
 159.999023438 90.509765625 l 1
 160 128 l 1
 224 128 l 1
160 256 m 1
 224 256 l 1
 224 192 l 1
 160 192 l 1
 160 256 l 1
EndSplineSet
EndChar

StartChar: underscore
Encoding: 95 95 4
Width: 384
Flags: HW
LayerCount: 2
Fore
SplineSet
32 64 m 1
 352 64 l 1
 352 -0 l 1
 32 0 l 1
 32 64 l 1
EndSplineSet
EndChar

StartChar: asterisk
Encoding: 42 42 5
Width: 384
Flags: HW
LayerCount: 2
Fore
SplineSet
224 224 m 1
 224 144 l 1
 256 144 l 1
 256 192 l 1
 320 192 l 1
 320 64 l 1
 256 64 l 1
 256 112 l 1
 224 112 l 1
 224 32 l 1
 160 32 l 1
 160 112 l 1
 128 112 l 1
 128 64 l 1
 64 64 l 1
 64 192 l 1
 128 192 l 1
 128 144 l 1
 160 144 l 1
 160 224 l 1
 224 224 l 1
EndSplineSet
EndChar

StartChar: four
Encoding: 52 52 6
Width: 384
Flags: HW
LayerCount: 2
Fore
SplineSet
96 384 m 1
 96 224 l 1
 287.999023438 224 l 1
 288 384 l 1
 352 384 l 1
 351.999023438 224 l 1
 352 160 l 1
 352 0 l 1
 288 0 l 1
 287.999023438 160 l 1
 32 160 l 1
 32 384 l 1
 96 384 l 1
EndSplineSet
EndChar

StartChar: D
Encoding: 68 68 7
Width: 384
Flags: HW
LayerCount: 2
Fore
SplineSet
352 384 m 1
 249.107421875 0 l 1
 182.850585938 0 l 1
 225.720703125 160 l 1
 32 160 l 1
 49.1484375 224.000976562 l 1
 242.869140625 224 l 1
 268.591796875 320 l 1
 32 320 l 1
 49.1494140625 384.000976562 l 1
 352 384 l 1
EndSplineSet
EndChar

StartChar: bracketleft
Encoding: 91 91 8
Width: 384
Flags: HW
LayerCount: 2
Fore
SplineSet
128 -32 m 1
 128 416 l 1
 256 416 l 1
 256 352 l 1
 192 352 l 1
 192 32 l 1
 256 32 l 1
 256 -32 l 1
 128 -32 l 1
EndSplineSet
EndChar

StartChar: equal
Encoding: 61 61 9
Width: 384
Flags: HW
LayerCount: 2
Fore
SplineSet
32 224 m 1
 352 224 l 1
 352 160 l 1
 32 160 l 1
 32 224 l 1
32 96 m 1
 352 96 l 1
 352 32 l 1
 32 32 l 1
 32 96 l 1
EndSplineSet
EndChar

StartChar: r
Encoding: 114 114 10
Width: 384
Flags: HW
LayerCount: 2
Fore
SplineSet
352 256.000976562 m 1
 283.404296875 0.0009765625 l 1
 217.146484375 0.0009765625 l 1
 268.591796875 192 l 1
 32 192 l 1
 49.1494140625 256.000976562 l 1
 352 256.000976562 l 1
EndSplineSet
EndChar

StartChar: backslash
Encoding: 92 92 11
Width: 384
Flags: HW
LayerCount: 2
Fore
SplineSet
99 416 m 1
 165.2578125 416 l 1
 285.297851562 -32 l 1
 219.041015625 -32 l 1
 99 416 l 1
EndSplineSet
EndChar

StartChar: R
Encoding: 82 82 12
Width: 384
Flags: HW
LayerCount: 2
Fore
SplineSet
352 384 m 1
 249.107421875 0 l 1
 182.850585938 0 l 1
 268.591796875 320 l 1
 32 320 l 1
 49.1494140625 384.000976562 l 1
 352 384 l 1
EndSplineSet
EndChar

StartChar: one
Encoding: 49 49 13
Width: 384
Flags: HW
LayerCount: 2
Fore
SplineSet
224 64 m 1
 352 64 l 1
 352 0 l 1
 32 0 l 1
 32 64 l 1
 160 64 l 1
 160 320 l 1
 32 320 l 1
 32 384 l 1
 224 384 l 1
 224 64 l 1
EndSplineSet
EndChar

StartChar: d
Encoding: 100 100 14
Width: 384
Flags: HW
LayerCount: 2
Fore
SplineSet
352 256.000976562 m 1
 283.404296875 0.0009765625 l 1
 217.146484375 0.0009765625 l 1
 234.294921875 64.0009765625 l 1
 32 64 l 1
 49.1484375 128.000976562 l 1
 251.443359375 128.000976562 l 1
 268.591796875 192 l 1
 32 192 l 1
 49.1494140625 256.000976562 l 1
 352 256.000976562 l 1
EndSplineSet
EndChar

StartChar: zero
Encoding: 48 48 15
Width: 384
Flags: HW
LayerCount: 2
Fore
SplineSet
32 0 m 1
 32 384 l 1
 352 384 l 1
 352 0 l 1
 32 0 l 1
95.9990234375 320.000976562 m 1
 95.9990234375 64 l 1
 288 64 l 1
 288 320.000976562 l 1
 95.9990234375 320.000976562 l 1
EndSplineSet
EndChar

StartChar: H
Encoding: 72 72 16
Width: 384
Flags: HW
LayerCount: 2
Fore
SplineSet
32 320 m 1
 32 384 l 1
 352 384 l 1
 352 320 l 1
 32 320 l 1
32 0 m 1
 32 64 l 1
 352 64 l 1
 352 0 l 1
 32 0 l 1
96 160 m 1
 96 224 l 1
 288 224 l 1
 288 160 l 1
 96 160 l 1
EndSplineSet
EndChar

StartChar: u
Encoding: 117 117 17
Width: 384
Flags: HW
LayerCount: 2
Fore
SplineSet
192 128.000976562 m 1
 118.099609375 128.000976562 l 1
 192 256 l 1
 352 256 l 1
 352 0 l 1
 32 0 l 1
 32 256 l 1
 96 256 l 1
 96 64 l 1
 288 64 l 1
 288 192 l 1
 228.950195312 192 l 1
 192 128.000976562 l 1
EndSplineSet
EndChar

StartChar: m
Encoding: 109 109 18
Width: 384
Flags: HW
LayerCount: 2
Fore
SplineSet
352 256 m 1
 352 192 l 1
 149.704101562 192 l 1
 115.40625 64 l 1
 352 64 l 1
 352 0 l 1
 32 0 l 1
 100.594726562 256 l 1
 352 256 l 1
EndSplineSet
EndChar

StartChar: parenleft
Encoding: 40 40 19
Width: 384
Flags: HW
LayerCount: 2
Fore
SplineSet
288 416 m 1
 288 352 l 1
 243.583984375 352 212.690429688 339.642578125 192.583007812 315.513671875 c 0
 171.361328125 290.047851562 160 249.1484375 160 192 c 0
 160 134.8515625 171.361328125 93.9521484375 192.583007812 68.486328125 c 0
 212.690429688 44.357421875 243.583984375 32 288 32 c 1
 288 -32 l 1
 225.749023438 -32 176.643554688 -12.357421875 143.416992188 27.513671875 c 0
 111.305664062 66.0478515625 96 121.1484375 96 192 c 0
 96 262.8515625 111.305664062 317.952148438 143.416992188 356.486328125 c 0
 176.643554688 396.357421875 225.749023438 416 288 416 c 1
EndSplineSet
EndChar

StartChar: c
Encoding: 99 99 20
Width: 384
Flags: HW
LayerCount: 2
Fore
SplineSet
160 192 m 1
 224 192 l 1
 224 64 l 1
 160 64 l 1
 160 192 l 1
32 256 m 1
 96 256 l 1
 96 64 l 1
 32 64 l 1
 32 256 l 1
288 192 m 1
 352 192 l 1
 352 0 l 1
 288 0 l 1
 288 192 l 1
EndSplineSet
EndChar

StartChar: question
Encoding: 63 63 21
Width: 384
Flags: HW
LayerCount: 2
Fore
SplineSet
160 128 m 1
 160 192 l 1
 224 192 l 2
 248.161132812 192 264.037109375 197.291992188 273.373046875 206.626953125 c 0
 282.708007812 215.962890625 288 231.838867188 288 256 c 0
 288 278.412109375 281.608398438 292.793945312 268.799804688 302.400390625 c 0
 253.975585938 313.517578125 228.856445312 319.872070312 193.086914062 319.998046875 c 2
 192 320 l 2
 155.65234375 320 130.173828125 313.629882812 115.200195312 302.400390625 c 0
 102.391601562 292.793945312 96 278.412109375 96 256 c 1
 32 256 l 1
 32 297.587890625 46.94140625 331.206054688 76.7998046875 353.599609375 c 0
 104.493164062 374.370117188 143.013671875 384 192 384 c 0
 240.986328125 384 279.506835938 374.370117188 307.200195312 353.599609375 c 0
 337.05859375 331.206054688 352 297.587890625 352 256 c 0
 352 174.327148438 305.672851562 128 224 128 c 2
 160 128 l 1
160 64 m 1
 224 64 l 1
 224 0 l 1
 160 0 l 1
 160 64 l 1
EndSplineSet
EndChar

StartChar: nine
Encoding: 57 57 22
Width: 384
Flags: HW
LayerCount: 2
Fore
SplineSet
352 384 m 1
 352 0 l 1
 32 0 l 1
 32 64 l 1
 288 64 l 1
 288 160 l 1
 32 160 l 1
 32 384 l 1
 352 384 l 1
95.9990234375 320.000976562 m 1
 95.9990234375 224.000976562 l 1
 288 224 l 1
 288 320 l 1
 95.9990234375 320.000976562 l 1
EndSplineSet
EndChar

StartChar: L
Encoding: 76 76 23
Width: 384
Flags: HW
LayerCount: 2
Fore
SplineSet
321 384 m 1
 321 0 l 1
 257 0 l 1
 63.0107421875 112 l 1
 95.0107421875 167.42578125 l 1
 256.999023438 73.9013671875 l 1
 257 384 l 1
 321 384 l 1
EndSplineSet
EndChar

StartChar: period
Encoding: 46 46 24
Width: 384
Flags: HW
LayerCount: 2
Fore
SplineSet
224 64 m 1
 224 0 l 1
 160 0 l 1
 160 64 l 1
 224 64 l 1
EndSplineSet
EndChar

StartChar: G
Encoding: 71 71 25
Width: 384
Flags: HW
LayerCount: 2
Fore
SplineSet
32 0 m 1
 32 384 l 1
 96 384 l 1
 95.9990234375 64 l 1
 199.999023438 64 l 1
 268.592773438 320 l 1
 191.999023438 320 l 1
 192 288 l 1
 128 288 l 1
 128 384 l 1
 352 384 l 1
 249.107421875 0 l 1
 32 0 l 1
EndSplineSet
EndChar

StartChar: asciitilde
Encoding: 126 126 26
Width: 384
Flags: HW
LayerCount: 2
Fore
SplineSet
175.045898438 155.580078125 m 2
 240.576171875 196.516601562 307.47265625 196.516601562 369.73046875 155.079101562 c 1
 334.26953125 101.801757812 l 1
 293.650390625 128.836914062 254.265625 129.107421875 210.288085938 102.126953125 c 2
 208.954101562 101.30078125 l 2
 143.423828125 60.3642578125 76.52734375 60.3642578125 14.26953125 101.801757812 c 1
 49.73046875 155.079101562 l 1
 90.349609375 128.043945312 129.734375 127.7734375 173.711914062 154.75390625 c 2
 175.045898438 155.580078125 l 2
EndSplineSet
EndChar

StartChar: X
Encoding: 88 88 27
Width: 384
Flags: HW
LayerCount: 2
Fore
SplineSet
32 384 m 1
 352 384 l 1
 352 0 l 1
 32 0 l 1
 32 64 l 1
 287.999023438 64 l 1
 287.999023438 320 l 1
 32 320 l 1
 32 384 l 1
EndSplineSet
EndChar

StartChar: two
Encoding: 50 50 28
Width: 384
Flags: HW
LayerCount: 2
Fore
SplineSet
96 160 m 1
 96 64 l 1
 352 64 l 1
 352 0 l 1
 32 0 l 1
 32 224 l 1
 288 224 l 1
 288 320 l 1
 32 320 l 1
 32 384 l 1
 352 384 l 1
 352 160 l 1
 96 160 l 1
EndSplineSet
EndChar

StartChar: n
Encoding: 110 110 29
Width: 384
Flags: HW
LayerCount: 2
Fore
SplineSet
131.77734375 256 m 1
 124.622070312 241.689453125 l 2
 105.44921875 203.344726562 96 165.546875 96 128 c 0
 96 94.63671875 103.4609375 61.0751953125 118.575195312 27.1083984375 c 1
 179.907226562 256 l 1
 283.404296875 256 l 1
 352 -0 l 1
 285.7421875 -0 l 1
 231.65625 201.853515625 l 1
 177.569335938 -0 l 1
 60.58984375 -0 l 1
 41.595703125 42.3212890625 32 85.0595703125 32 128 c 0
 32 170.940429688 41.595703125 213.678710938 60.58984375 256 c 1
 131.77734375 256 l 1
EndSplineSet
EndChar

StartChar: k
Encoding: 107 107 30
Width: 384
Flags: HW
LayerCount: 2
Fore
SplineSet
32 0 m 1
 32 64 l 1
 287.999023438 64 l 1
 287.999023438 192 l 1
 32 192 l 1
 32 256 l 1
 352 256 l 1
 352 0 l 1
 32 0 l 1
EndSplineSet
EndChar

StartChar: s
Encoding: 115 115 31
Width: 384
Flags: HW
LayerCount: 2
Fore
SplineSet
288 0 m 1
 32 256.000976562 l 1
 122.5078125 256.000976562 l 1
 288 90.5087890625 l 1
 288 256 l 1
 352 256 l 1
 352 0 l 1
 288 0 l 1
32 33.12890625 m 1
 48.564453125 94.9482421875 l 1
 172.203125 61.8193359375 l 1
 155.638671875 0 l 1
 32 33.12890625 l 1
EndSplineSet
EndChar

StartChar: e
Encoding: 101 101 32
Width: 384
Flags: HW
LayerCount: 2
Fore
SplineSet
352.5 256.5 m 1
 352.5 193.5 l 1
 321 193.5 l 1
 321 0 l 1
 258 0 l 1
 258 193.5 l 1
 218.56640625 193.5 l 1
 166.852539062 0.5 l 1
 100.594726562 0.5 l 1
 32 256.5 l 1
 98.2568359375 256.5 l 1
 133.724609375 124.133789062 l 1
 169.190429688 256.5 l 1
 352.5 256.5 l 1
EndSplineSet
EndChar

StartChar: W
Encoding: 87 87 33
Width: 384
Flags: HW
LayerCount: 2
Fore
SplineSet
352 0 m 1
 32 0 l 1
 32 384 l 1
 352 384 l 1
 352 0 l 1
288 64 m 1
 288 320 l 1
 96 320 l 1
 96 64 l 1
 288 64 l 1
EndSplineSet
EndChar

StartChar: N
Encoding: 78 78 34
Width: 384
Flags: HW
LayerCount: 2
Fore
SplineSet
75.4541015625 -0.0009765625 m 1
 46.552734375 63.6455078125 32 127.721679688 32 192 c 0
 32 256.278320312 46.552734375 320.353515625 75.4541015625 384 c 1
 146.423828125 384 l 1
 139.583007812 369.97265625 l 2
 110.444335938 310.227539062 96 250.997070312 96 192 c 0
 96 162.00390625 99.7333984375 131.948242188 107.234375 101.794921875 c 1
 182.849609375 384 l 1
 249.107421875 383.99609375 l 1
 352 -0.0009765625 l 1
 285.7421875 -0.0009765625 l 1
 215.98046875 260.364257812 l 1
 146.2890625 0.27734375 l 1
 146.423828125 -0.0009765625 l 1
 75.4541015625 -0.0009765625 l 1
EndSplineSet
EndChar

StartChar: B
Encoding: 66 66 35
Width: 384
Flags: HW
LayerCount: 2
Fore
SplineSet
98.2568359375 176 m 1
 128.266601562 64 l 1
 255.732421875 64 l 1
 285.7421875 176 l 1
 352 176 l 1
 304.83984375 0 l 1
 79.1591796875 0 l 1
 32 176 l 1
 98.2568359375 176 l 1
242 224 m 1
 242 160 l 1
 142 160 l 1
 142 224 l 1
 242 224 l 1
304.83984375 384 m 1
 352 208 l 1
 285.7421875 208 l 1
 255.732421875 320 l 1
 128.266601562 320 l 1
 98.2568359375 208 l 1
 32 208 l 1
 79.1591796875 384 l 1
 304.83984375 384 l 1
EndSplineSet
EndChar

StartChar: at
Encoding: 64 64 36
Width: 384
Flags: HW
LayerCount: 2
Fore
SplineSet
352 320 m 1
 352 0 l 1
 32 0 l 1
 32 320 l 1
 352 320 l 1
130 98 m 1
 130 222 l 1
 254 222 l 1
 254 130 l 1
 288 130 l 1
 288 256 l 1
 96 256 l 1
 96 64 l 1
 288 64 l 1
 288 98 l 1
 130 98 l 1
222 190 m 1
 162 190 l 1
 162 130 l 1
 222 130 l 1
 222 190 l 1
EndSplineSet
EndChar

StartChar: parenright
Encoding: 41 41 37
Width: 384
Flags: HW
LayerCount: 2
Fore
SplineSet
96 -32 m 1
 96 32 l 1
 140.416015625 32 171.309570312 44.357421875 191.416992188 68.486328125 c 0
 212.638671875 93.9521484375 224 134.8515625 224 192 c 0
 224 249.1484375 212.638671875 290.047851562 191.416992188 315.513671875 c 0
 171.309570312 339.642578125 140.416015625 352 96 352 c 1
 96 416 l 1
 158.250976562 416 207.356445312 396.357421875 240.583007812 356.486328125 c 0
 272.694335938 317.952148438 288 262.8515625 288 192 c 0
 288 121.1484375 272.694335938 66.0478515625 240.583007812 27.513671875 c 0
 207.356445312 -12.357421875 158.250976562 -32 96 -32 c 1
EndSplineSet
EndChar

StartChar: t
Encoding: 116 116 38
Width: 384
Flags: HW
LayerCount: 2
Fore
SplineSet
224 256 m 1
 224 90.5146484375 l 1
 261.491210938 128.006835938 l 1
 352 128.006835938 l 1
 224 0.0048828125 l 1
 160 0 l 1
 32 128.006835938 l 1
 122.5078125 128.006835938 l 1
 160 90.5146484375 l 1
 160 256 l 1
 224 256 l 1
EndSplineSet
EndChar

StartChar: braceright
Encoding: 125 125 39
Width: 384
Flags: HW
LayerCount: 2
Fore
SplineSet
105 416 m 1
 145.744140625 416 178.705078125 403.181640625 201.295898438 376.825195312 c 0
 222.709960938 351.842773438 232.797851562 317.036132812 232.997070312 273.327148438 c 2
 233 272 l 2
 233 247.93359375 240.34765625 229.564453125 255.3671875 214.884765625 c 2
 279.163085938 191.626953125 l 1
 254.994140625 168.756835938 l 2
 240.434570312 154.978515625 233.154296875 137.016601562 233.001953125 112.775390625 c 2
 233 112 l 2
 233 67.66796875 222.92578125 32.4091796875 201.295898438 7.1748046875 c 0
 178.705078125 -19.181640625 145.744140625 -32 105 -32 c 1
 105 32 l 1
 128.255859375 32 143.294921875 37.8486328125 152.704101562 48.8251953125 c 0
 162.969726562 60.802734375 168.880859375 81.2509765625 168.998046875 111.092773438 c 2
 169 112 l 2
 169 142.41015625 176.489257812 169.344726562 191.407226562 191.961914062 c 2
 191.563476562 192.196289062 l 1
 191.232421875 192.700195312 l 2
 176.655273438 215.138671875 169.205078125 241.413085938 169.00390625 270.774414062 c 2
 169 272 l 2
 169 302.334960938 163.07421875 323.076171875 152.704101562 335.174804688 c 0
 143.294921875 346.151367188 128.255859375 352 105 352 c 1
 105 416 l 1
EndSplineSet
EndChar

StartChar: b
Encoding: 98 98 40
Width: 384
Flags: HW
LayerCount: 2
Fore
SplineSet
98.2587890625 112.000976562 m 1
 111.120117188 64.0009765625 l 1
 272.880859375 64 l 1
 285.7421875 112.000976562 l 1
 352 112.000976562 l 1
 321.990234375 0 l 1
 62.0107421875 0 l 1
 32 112.000976562 l 1
 98.2587890625 112.000976562 l 1
242 160 m 1
 242 96 l 1
 142 96 l 1
 142 160 l 1
 242 160 l 1
321.989257812 256.000976562 m 1
 352 144 l 1
 285.741210938 144 l 1
 272.879882812 192 l 1
 111.119140625 192.000976562 l 1
 98.2578125 144 l 1
 32 144 l 1
 62.009765625 256.000976562 l 1
 321.989257812 256.000976562 l 1
EndSplineSet
EndChar

StartChar: plus
Encoding: 43 43 41
Width: 384
Flags: HW
LayerCount: 2
Fore
SplineSet
224 224 m 1
 224 160.000976562 l 1
 288 160 l 1
 288 96 l 1
 224 96.0009765625 l 1
 224 32 l 1
 160 32 l 1
 160 96.0009765625 l 1
 96 96 l 1
 96 160 l 1
 160 160.000976562 l 1
 160 224 l 1
 224 224 l 1
EndSplineSet
EndChar

StartChar: T
Encoding: 84 84 42
Width: 384
Flags: HW
LayerCount: 2
Fore
SplineSet
224 384 m 1
 224 90.5146484375 l 1
 261.491210938 128.006835938 l 1
 352 128.006835938 l 1
 224 0.0048828125 l 1
 160 0 l 1
 32 128.006835938 l 1
 122.5078125 128.006835938 l 1
 160 90.5146484375 l 1
 160 384 l 1
 224 384 l 1
EndSplineSet
EndChar

StartChar: comma
Encoding: 44 44 43
Width: 384
Flags: HW
LayerCount: 2
Fore
SplineSet
260 123 m 1
 260 59 l 1
 169.490234375 -31.509765625 l 1
 124.235351562 13.7451171875 l 1
 195.999023438 85.509765625 l 1
 196 123 l 1
 260 123 l 1
EndSplineSet
EndChar

StartChar: A
Encoding: 65 65 44
Width: 384
Flags: HW
LayerCount: 2
Fore
SplineSet
32 208 m 1
 32 384 l 1
 96 384 l 1
 96 272 l 1
 149.489257812 272 l 1
 261.490234375 384 l 1
 352 384 l 1
 175.999023438 208 l 1
 32 208 l 1
32 176 m 1
 175.999023438 176 l 1
 352 0 l 1
 261.490234375 0 l 1
 149.489257812 112 l 1
 96 112 l 1
 96 0 l 1
 32 0 l 1
 32 176 l 1
EndSplineSet
EndChar

StartChar: O
Encoding: 79 79 45
Width: 384
Flags: HW
LayerCount: 2
Fore
SplineSet
32 -0.0009765625 m 1
 99.708984375 384 l 1
 284.290039062 384 l 1
 352 -0.0009765625 l 1
 32 -0.0009765625 l 1
230.587890625 320 m 1
 153.411132812 320 l 1
 108.272460938 64 l 1
 275.7265625 64 l 1
 230.587890625 320 l 1
EndSplineSet
EndChar

StartChar: bracketright
Encoding: 93 93 47
Width: 384
Flags: HW
LayerCount: 2
Fore
SplineSet
256 416 m 1
 256 -32 l 1
 128 -32 l 1
 128 32 l 1
 192 32 l 1
 192 352 l 1
 128 352 l 1
 128 416 l 1
 256 416 l 1
EndSplineSet
EndChar

StartChar: numbersign
Encoding: 35 35 48
Width: 384
Flags: HW
LayerCount: 2
Fore
SplineSet
160 352 m 1
 159.999023438 288.000976562 l 1
 223.999023438 288.000976562 l 1
 224 352 l 1
 288 352 l 1
 287.999023438 288.000976562 l 1
 352 288 l 1
 352 224 l 1
 287.999023438 224.000976562 l 1
 287.999023438 160.000976562 l 1
 352 160 l 1
 352 96 l 1
 287.999023438 96.0009765625 l 1
 288 32 l 1
 224 32 l 1
 223.999023438 96.0009765625 l 1
 159.999023438 96.0009765625 l 1
 160 32 l 1
 96 32 l 1
 95.9990234375 96.0009765625 l 1
 32 96 l 1
 32 160 l 1
 95.9990234375 160.000976562 l 1
 95.9990234375 224.000976562 l 1
 32 224 l 1
 32 288 l 1
 95.9990234375 288.000976562 l 1
 96 352 l 1
 160 352 l 1
223.999023438 160.000976562 m 1
 223.999023438 224.000976562 l 1
 159.999023438 224.000976562 l 1
 159.999023438 160.000976562 l 1
 223.999023438 160.000976562 l 1
EndSplineSet
EndChar

StartChar: U
Encoding: 85 85 49
Width: 384
Flags: HW
LayerCount: 2
Fore
SplineSet
192 256.000976562 m 1
 118.099609375 256.000976562 l 1
 192 384 l 1
 352 384 l 1
 352 0 l 1
 32 0 l 1
 32 384 l 1
 96 384 l 1
 96 64 l 1
 288 64 l 1
 288 320 l 1
 228.950195312 320 l 1
 192 256.000976562 l 1
EndSplineSet
EndChar

StartChar: v
Encoding: 118 118 50
Width: 384
Flags: HW
LayerCount: 2
Fore
SplineSet
352 256.000976562 m 1
 224 128.001953125 l 1
 224 0 l 1
 160 0 l 1
 160 127.999023438 l 1
 32 256 l 1
 122.5078125 256.000976562 l 1
 191.999023438 186.510742188 l 1
 261.490234375 256.000976562 l 1
 352 256.000976562 l 1
EndSplineSet
EndChar

StartChar: five
Encoding: 53 53 51
Width: 384
Flags: HW
LayerCount: 2
Fore
SplineSet
32 0 m 1
 32 64 l 1
 288 64 l 1
 288 160 l 1
 32 160 l 1
 32 384 l 1
 352 384 l 1
 352 320 l 1
 96 320 l 1
 96 224 l 1
 352 224 l 1
 352 0 l 1
 32 0 l 1
EndSplineSet
EndChar

StartChar: z
Encoding: 122 122 52
Width: 384
Flags: HW
LayerCount: 2
Fore
SplineSet
122.505859375 159.998046875 m 1
 32 159.997070312 l 1
 128 256 l 1
 288 256 l 1
 288 288 l 1
 352 288 l 1
 352 0 l 1
 32 0 l 1
 32 96 l 1
 96 96 l 1
 96 64 l 1
 288 64 l 1
 288 192 l 1
 154.5078125 192 l 1
 122.505859375 159.998046875 l 1
EndSplineSet
EndChar

StartChar: g
Encoding: 103 103 53
Width: 384
Flags: HW
LayerCount: 2
Fore
SplineSet
96 256 m 1
 95.9990234375 64.0009765625 l 1
 234.295898438 64.0009765625 l 1
 268.592773438 192 l 1
 191.999023438 192 l 1
 192 160 l 1
 128 160 l 1
 128 256 l 1
 352 256 l 1
 283.405273438 0 l 1
 32 0 l 1
 32 256 l 1
 96 256 l 1
EndSplineSet
EndChar

StartChar: q
Encoding: 113 113 54
Width: 384
Flags: HW
LayerCount: 2
Fore
SplineSet
352 256 m 1
 352 128 l 1
 288 128 l 1
 287.999023438 192 l 1
 96 192 l 1
 95.9990234375 64 l 1
 288 64 l 1
 223.999023438 0 l 1
 32 0 l 1
 32 256 l 1
 352 256 l 1
EndSplineSet
EndChar

StartChar: exclam
Encoding: 33 33 55
Width: 384
Flags: HW
LayerCount: 2
Fore
SplineSet
160 384 m 1
 224 384 l 1
 224 128 l 1
 160 128 l 1
 160 384 l 1
160 64 m 1
 224 64 l 1
 224 0 l 1
 160 0 l 1
 160 64 l 1
EndSplineSet
EndChar

StartChar: Y
Encoding: 89 89 56
Width: 384
Flags: HW
LayerCount: 2
Fore
SplineSet
99.7099609375 0 m 1
 32 384 l 1
 194.466796875 384 l 1
 217.036132812 256 l 1
 152.049804688 256 l 1
 135.122070312 352 l 1
 102.627929688 352 l 1
 153.411132812 64 l 1
 230.587890625 64 l 1
 287.01171875 384 l 1
 352 384 l 1
 284.290039062 0 l 1
 99.7099609375 0 l 1
EndSplineSet
EndChar

StartChar: x
Encoding: 120 120 57
Width: 384
Flags: HW
LayerCount: 2
Fore
SplineSet
32 256 m 1
 352 256 l 1
 352 0 l 1
 32 0 l 1
 32 64 l 1
 287.999023438 64 l 1
 287.999023438 192 l 1
 32 192 l 1
 32 256 l 1
EndSplineSet
EndChar

StartChar: V
Encoding: 86 86 58
Width: 384
Flags: HW
LayerCount: 2
Fore
SplineSet
352 384 m 1
 224 162.297851562 l 1
 224 0 l 1
 160 0 l 1
 160 162.296875 l 1
 32 384 l 1
 105.900390625 384 l 1
 192 234.873046875 l 1
 278.098632812 384 l 1
 352 384 l 1
EndSplineSet
EndChar

StartChar: dollar
Encoding: 36 36 59
Width: 384
Flags: HW
LayerCount: 2
Fore
SplineSet
96 192 m 1
 64 192 l 1
 64 256 l 1
 32 255.999023438 l 1
 32 320 l 1
 64 320 l 1
 64 384 l 1
 96 384 l 1
 96 320 l 1
 129 320 l 1
 129 384 l 1
 161 384 l 1
 161 320 l 1
 352 320 l 1
 266.254882812 0 l 1
 199.998046875 0 l 1
 268.591796875 255.999023438 l 1
 161 256 l 1
 161 192 l 1
 129 192 l 1
 129 256 l 1
 96 256 l 1
 96 192 l 1
EndSplineSet
EndChar

StartChar: M
Encoding: 77 77 60
Width: 384
Flags: HW
LayerCount: 2
Fore
SplineSet
32 0 m 1
 134.887695312 384 l 1
 352 384 l 1
 352 320 l 1
 183.99609375 320 l 1
 115.40234375 64 l 1
 352 64 l 1
 352 0 l 1
 32 0 l 1
EndSplineSet
EndChar

StartChar: greater
Encoding: 62 62 61
Width: 384
Flags: HW
LayerCount: 2
Fore
SplineSet
103.254882812 -31.8916015625 m 1
 58 13.36328125 l 1
 236.19140625 191.553710938 l 1
 58 369.745117188 l 1
 103.254882812 415 l 1
 326.700195312 191.5546875 l 1
 103.254882812 -31.8916015625 l 1
EndSplineSet
EndChar

StartChar: Z
Encoding: 90 90 62
Width: 384
Flags: HW
LayerCount: 2
Fore
SplineSet
122.505859375 159.998046875 m 1
 32 159.997070312 l 1
 128 256 l 1
 288 256 l 1
 288 384 l 1
 352 384 l 1
 352 0 l 1
 32 0 l 1
 32 96 l 1
 96 96 l 1
 96 64 l 1
 288 64 l 1
 288 192 l 1
 154.5078125 192 l 1
 122.505859375 159.998046875 l 1
EndSplineSet
EndChar

StartChar: C
Encoding: 67 67 63
Width: 384
Flags: HW
LayerCount: 2
Fore
SplineSet
160 256 m 1
 224 256 l 1
 224 128 l 1
 160 128 l 1
 160 256 l 1
288 256 m 1
 352 256 l 1
 352 0 l 1
 288 0 l 1
 288 256 l 1
32 384 m 1
 96 384 l 1
 96 128 l 1
 32 128 l 1
 32 384 l 1
EndSplineSet
EndChar

StartChar: i
Encoding: 105 105 64
Width: 384
Flags: HW
LayerCount: 2
Fore
SplineSet
281 256 m 1
 281 0 l 1
 217 0 l 1
 217 165.4921875 l 1
 149.118164062 97.6083984375 l 1
 103.86328125 142.86328125 l 1
 217 256 l 1
 281 256 l 1
EndSplineSet
EndChar

StartChar: y
Encoding: 121 121 65
Width: 384
Flags: HW
LayerCount: 2
Fore
SplineSet
194.466796875 256 m 1
 217.036132812 128 l 1
 152.049804688 128 l 1
 135.122070312 224 l 1
 102.627929688 224 l 1
 130.840820312 64 l 1
 253.157226562 64 l 1
 287.01171875 256 l 1
 352 256 l 1
 306.859375 0 l 1
 77.1396484375 0 l 1
 32 256 l 1
 194.466796875 256 l 1
EndSplineSet
EndChar

StartChar: S
Encoding: 83 83 66
Width: 384
Flags: HW
LayerCount: 2
Fore
SplineSet
140.290039062 384 m 1
 288 128.158203125 l 1
 288 384 l 1
 352 384 l 1
 352 0 l 1
 288 0 l 1
 288 0.1591796875 l 1
 66.390625 384 l 1
 140.290039062 384 l 1
48.564453125 111 m 1
 232.08984375 61.82421875 l 1
 215.526367188 0.0048828125 l 1
 32 49.1806640625 l 1
 48.564453125 111 l 1
EndSplineSet
EndChar

StartChar: ampersand
Encoding: 38 38 67
Width: 384
Flags: HW
LayerCount: 2
Fore
SplineSet
352 384 m 1
 352 0 l 1
 32 0 l 1
 32 128 l 1
 96 128 l 1
 96 64 l 1
 288 64 l 1
 288 160.000976562 l 1
 160 160 l 1
 160 224 l 1
 288 224.000976562 l 1
 288 320 l 1
 96 320 l 1
 96 256 l 1
 32 256 l 1
 32 384 l 1
 352 384 l 1
EndSplineSet
EndChar

StartChar: J
Encoding: 74 74 68
Width: 384
Flags: HW
LayerCount: 2
Fore
SplineSet
352 384 m 1
 249.107421875 0 l 1
 32 0 l 1
 32 64 l 1
 199.999023438 64.0009765625 l 1
 233.127929688 187.637695312 l 1
 189.529296875 148.209960938 139.715820312 128 84.90234375 128 c 2
 32 128 l 1
 32 192 l 1
 84.90234375 192 l 2
 164.284179688 192 231.163085938 253.625976562 285.159179688 384 c 1
 352 384 l 1
352 384 m 1
 249.107421875 0 l 1
 32 0 l 1
 32 64 l 1
 199.999023438 64.0009765625 l 1
 233.127929688 187.637695312 l 1
 189.529296875 148.209960938 139.715820312 128 84.90234375 128 c 2
 32 128 l 1
 32 192 l 1
 84.90234375 192 l 2
 164.284179688 192 231.163085938 253.625976562 285.159179688 384 c 1
 352 384 l 1
EndSplineSet
EndChar

StartChar: I
Encoding: 73 73 69
Width: 384
Flags: HW
LayerCount: 2
Fore
SplineSet
281 384 m 1
 281 0 l 1
 217 0 l 1
 217 293.4921875 l 1
 149.118164062 225.608398438 l 1
 103.86328125 270.86328125 l 1
 217 384 l 1
 281 384 l 1
EndSplineSet
EndChar

StartChar: quotesingle
Encoding: 39 39 70
Width: 384
Flags: HW
LayerCount: 2
Fore
SplineSet
160 256 m 1
 160 384 l 1
 224 384 l 1
 224 256 l 1
 160 256 l 1
EndSplineSet
EndChar

StartChar: h
Encoding: 104 104 71
Width: 384
Flags: HW
LayerCount: 2
Fore
SplineSet
32 192 m 1
 32 256 l 1
 352 256 l 1
 352 192 l 1
 32 192 l 1
32 0 m 1
 32 64 l 1
 352 64 l 1
 352 0 l 1
 32 0 l 1
96 96 m 1
 96 160 l 1
 288 160 l 1
 288 96 l 1
 96 96 l 1
EndSplineSet
EndChar

StartChar: three
Encoding: 51 51 72
Width: 384
Flags: HW
LayerCount: 2
Fore
SplineSet
32 384 m 1
 352 384 l 1
 352 0 l 1
 32 0 l 1
 32 64 l 1
 287.999023438 64 l 1
 287.999023438 160 l 1
 32 160 l 1
 32 224 l 1
 287.999023438 224 l 1
 287.999023438 320 l 1
 32 320 l 1
 32 384 l 1
EndSplineSet
EndChar

StartChar: six
Encoding: 54 54 73
Width: 384
Flags: HW
LayerCount: 2
Fore
SplineSet
352 224 m 1
 352 0 l 1
 32 0 l 1
 32 384 l 1
 352 384 l 1
 352 320 l 1
 96 320 l 1
 96 224 l 1
 352 224 l 1
288 64 m 1
 288 160 l 1
 96 160 l 1
 96 64 l 1
 288 64 l 1
EndSplineSet
EndChar

StartChar: eight
Encoding: 56 56 74
Width: 384
Flags: HW
LayerCount: 2
Fore
SplineSet
352 0 m 1
 32 0 l 1
 32 384 l 1
 352 384 l 1
 352 0 l 1
288 64 m 1
 288 160 l 1
 96 160 l 1
 96 64 l 1
 288 64 l 1
288 224 m 1
 288 320 l 1
 96 320 l 1
 96 224 l 1
 288 224 l 1
EndSplineSet
EndChar

StartChar: slash
Encoding: 47 47 75
Width: 384
Flags: HW
LayerCount: 2
Fore
SplineSet
285.297851562 416 m 1
 165.256835938 -32 l 1
 99 -32 l 1
 219.040039062 416 l 1
 285.297851562 416 l 1
EndSplineSet
EndChar

StartChar: bar
Encoding: 124 124 76
Width: 384
Flags: HW
LayerCount: 2
Fore
SplineSet
160 -32 m 1
 160 416 l 1
 224 416 l 1
 224 -32 l 1
 160 -32 l 1
EndSplineSet
EndChar

StartChar: F
Encoding: 70 70 77
Width: 384
Flags: HW
LayerCount: 2
Fore
SplineSet
32 159.999023438 m 1
 127.999023438 159.999023438 l 1
 128 384 l 1
 192 384 l 1
 191.999023438 159.999023438 l 1
 222.096679688 159.999023438 243.286132812 174.125976562 259.377929688 206.309570312 c 0
 278.090820312 243.735351562 288 303.190429688 288 384 c 1
 352 384 l 1
 352 294.141601562 340.576171875 225.596679688 316.622070312 177.688476562 c 0
 290.3125 125.0703125 248.091796875 96.572265625 193.653320312 96.0078125 c 2
 191.999023438 95.9990234375 l 1
 191.999023438 64.0009765625 l 1
 352 64 l 1
 352 0 l 1
 32 0 l 1
 32 159.999023438 l 1
127.999023438 95.9990234375 m 1
 96 95.9990234375 l 1
 96 64.0009765625 l 1
 127.999023438 64.0009765625 l 1
 127.999023438 95.9990234375 l 1
EndSplineSet
EndChar

StartChar: asciicircum
Encoding: 94 94 78
Width: 384
Flags: HW
LayerCount: 2
Fore
SplineSet
192.27734375 407 m 1
 358.553710938 311 l 1
 326.553710938 255.57421875 l 1
 192.276367188 333.099609375 l 1
 58 255.57421875 l 1
 26 311 l 1
 192.27734375 407 l 1
EndSplineSet
EndChar

StartChar: braceleft
Encoding: 123 123 79
Width: 384
Flags: HW
LayerCount: 2
Fore
SplineSet
279 -32 m 1
 238.255859375 -32 205.294921875 -19.181640625 182.704101562 7.1748046875 c 0
 161.290039062 32.1572265625 151.202148438 66.9638671875 151.002929688 110.672851562 c 2
 151 112 l 2
 151 136.06640625 143.65234375 154.435546875 128.6328125 169.115234375 c 2
 104.836914062 192.373046875 l 1
 129.005859375 215.243164062 l 2
 143.565429688 229.021484375 150.845703125 246.983398438 150.998046875 271.224609375 c 2
 151 272 l 2
 151 316.33203125 161.07421875 351.590820312 182.704101562 376.825195312 c 0
 205.294921875 403.181640625 238.255859375 416 279 416 c 1
 279 352 l 1
 255.744140625 352 240.705078125 346.151367188 231.295898438 335.174804688 c 0
 221.030273438 323.197265625 215.119140625 302.749023438 215.001953125 272.907226562 c 2
 215 272 l 2
 215 241.927734375 207.67578125 215.25390625 193.086914062 192.793945312 c 2
 192.436523438 191.803710938 l 1
 192.767578125 191.299804688 l 2
 207.344726562 168.861328125 214.794921875 142.586914062 214.99609375 113.225585938 c 2
 215 112 l 2
 215 81.6650390625 220.92578125 60.923828125 231.295898438 48.8251953125 c 0
 240.705078125 37.8486328125 255.744140625 32 279 32 c 1
 279 -32 l 1
EndSplineSet
EndChar

StartChar: a
Encoding: 97 97 80
Width: 384
Flags: HW
LayerCount: 2
Fore
SplineSet
96 256 m 1
 96 208.000976562 l 1
 213.491210938 208.000976562 l 1
 261.491210938 256 l 1
 352 256 l 1
 239.999023438 144 l 1
 32 144 l 1
 32 256 l 1
 96 256 l 1
96 0 m 1
 32 0 l 1
 32 112 l 1
 239.999023438 112 l 1
 352 0 l 1
 261.491210938 0 l 1
 213.491210938 47.9990234375 l 1
 96 47.9990234375 l 1
 96 0 l 1
EndSplineSet
EndChar

StartChar: P
Encoding: 80 80 81
Width: 384
Flags: HW
LayerCount: 2
Fore
SplineSet
210 384 m 1
 210 288 l 1
 146 288 l 1
 146 355.647460938 l 1
 112.4921875 300.384765625 96 245.959960938 96 192 c 0
 96 149.6796875 106.14453125 107.072265625 126.686523438 64 c 1
 287.999023438 64 l 1
 288 384 l 1
 352 384 l 1
 352 -0 l 1
 88.3828125 -0 l 1
 50.9560546875 63.3251953125 32 127.440429688 32 192 c 0
 32 256.559570312 50.9560546875 320.67578125 88.3828125 384 c 1
 210 384 l 1
EndSplineSet
EndChar

StartChar: percent
Encoding: 37 37 82
Width: 384
Flags: HW
LayerCount: 2
Fore
SplineSet
345 384 m 1
 114.268554688 0 l 1
 39.6044921875 0 l 1
 270.334960938 384 l 1
 345 384 l 1
256 96 m 1
 352 96 l 1
 352 0 l 1
 256 0 l 1
 256 96 l 1
320 64 m 1
 288 64 l 1
 287.999023438 32 l 1
 319.999023438 32 l 1
 320 64 l 1
32 384 m 1
 128 384 l 1
 128 288 l 1
 32 288 l 1
 32 384 l 1
96 352 m 1
 64 352 l 1
 63.9990234375 320 l 1
 95.9990234375 320 l 1
 96 352 l 1
EndSplineSet
EndChar

StartChar: w
Encoding: 119 119 83
Width: 384
Flags: HW
LayerCount: 2
Fore
SplineSet
352 0 m 1
 32 0 l 1
 32 256.000976562 l 1
 352 256.000976562 l 1
 352 0 l 1
288 64 m 1
 288 192.000976562 l 1
 96 192.000976562 l 1
 96 64 l 1
 288 64 l 1
EndSplineSet
EndChar

StartChar: o
Encoding: 111 111 84
Width: 384
Flags: HW
LayerCount: 2
Fore
SplineSet
32 0 m 1
 100.594726562 256 l 1
 283.405273438 256 l 1
 352 0 l 1
 32 0 l 1
268.59375 64 m 1
 234.294921875 192 l 1
 149.704101562 192 l 1
 115.40625 64 l 1
 268.59375 64 l 1
EndSplineSet
EndChar

StartChar: colon
Encoding: 58 58 85
Width: 384
Flags: HW
LayerCount: 2
Fore
SplineSet
160 64 m 1
 224 64 l 1
 224 0 l 1
 160 0 l 1
 160 64 l 1
160 256 m 1
 224 256 l 1
 224 192 l 1
 160 192 l 1
 160 256 l 1
EndSplineSet
EndChar

StartChar: j
Encoding: 106 106 86
Width: 384
Flags: HW
LayerCount: 2
Fore
SplineSet
352 256 m 1
 283.404296875 0 l 1
 32 0 l 1
 32 64 l 1
 234.294921875 64 l 1
 247.758789062 114.239257812 l 1
 222.78515625 102.166992188 194.25 96 162.358398438 96 c 2
 32 96 l 1
 32 160.000976562 l 1
 162.358398438 160 l 2
 221.413085938 160 260.728515625 188.51953125 284.341796875 250.762695312 c 1
 285.7421875 256 l 1
 352 256 l 1
EndSplineSet
EndChar

StartChar: grave
Encoding: 96 96 87
Width: 384
Flags: HW
LayerCount: 2
Fore
SplineSet
124.435546875 383.712890625 m 1
 290.712890625 287.712890625 l 1
 258.712890625 232.287109375 l 1
 92.435546875 328.287109375 l 1
 124.435546875 383.712890625 l 1
EndSplineSet
EndChar

StartChar: f
Encoding: 102 102 88
Width: 384
Flags: HW
LayerCount: 2
Fore
SplineSet
224 256 m 1
 224.000976562 162.750976562 l 1
 242.102539062 166.239257812 255.727539062 172.982421875 265.373046875 182.626953125 c 0
 280.041015625 197.295898438 288 221.171875 288 256 c 1
 352 256 l 1
 352 164.2109375 306.744140625 108.958984375 224.001953125 98.013671875 c 1
 224 64.0009765625 l 1
 352 64 l 1
 352 0 l 1
 32 0 l 1
 32 160 l 1
 160 160 l 1
 160 256 l 1
 224 256 l 1
160 96 m 1
 96 96 l 1
 96 64.0009765625 l 1
 160 64.0009765625 l 1
 160 96 l 1
EndSplineSet
EndChar

StartChar: less
Encoding: 60 60 89
Width: 384
Flags: HW
LayerCount: 2
Fore
SplineSet
281.4453125 416 m 1
 326.700195312 370.745117188 l 1
 148.508789062 192.5546875 l 1
 326.700195312 14.36328125 l 1
 281.4453125 -30.8916015625 l 1
 58 192.5546875 l 1
 281.4453125 416 l 1
EndSplineSet
EndChar

StartChar: hyphen
Encoding: 45 45 90
Width: 384
Flags: HW
LayerCount: 2
Fore
SplineSet
288 160 m 1
 288 96 l 1
 96 96 l 1
 96 160 l 1
 288 160 l 1
EndSplineSet
EndChar

StartChar: p
Encoding: 112 112 91
Width: 384
Flags: HW
LayerCount: 2
Fore
SplineSet
60.58984375 -0 m 1
 41.595703125 42.3212890625 32 85.0595703125 32 128 c 0
 32 170.940429688 41.595703125 213.678710938 60.58984375 256 c 1
 183 256 l 1
 183 160 l 1
 119 160 l 1
 119.000976562 229.844726562 l 1
 103.6015625 195.552734375 96 161.67578125 96 128 c 0
 96 106.764648438 99.0224609375 85.44921875 105.1171875 64 c 1
 288 64 l 1
 288 256 l 1
 352 256 l 1
 352 -0 l 1
 60.58984375 -0 l 1
EndSplineSet
EndChar

StartChar: quotedbl
Encoding: 34 34 92
Width: 384
Flags: HW
LayerCount: 2
Fore
SplineSet
96 384 m 1
 160 384 l 1
 160 256 l 1
 96 256 l 1
 96 384 l 1
224 384 m 1
 288 384 l 1
 288 256 l 1
 224 256 l 1
 224 384 l 1
EndSplineSet
EndChar

StartChar: E
Encoding: 69 69 93
Width: 384
Flags: HW
LayerCount: 2
Fore
SplineSet
134.891601562 0 m 1
 32 384 l 1
 98.2568359375 384 l 1
 168.022460938 123.633789062 l 1
 237.784179688 384 l 1
 352 384 l 1
 352 320 l 1
 320 320 l 1
 320 0 l 1
 256 0 l 1
 256 204.706054688 l 1
 201.149414062 0.001953125 l 1
 134.891601562 0 l 1
EndSplineSet
EndChar

StartChar: K
Encoding: 75 75 94
Width: 384
Flags: HW
LayerCount: 2
Fore
SplineSet
32 0 m 1
 32 64 l 1
 288 64 l 1
 288 320 l 1
 32 320 l 1
 32 384 l 1
 352 384 l 1
 352 0 l 1
 32 0 l 1
EndSplineSet
EndChar
